<?xml version="1.0" encoding="utf-8"?>
<!-- Generator: Adobe Illustrator 27.5.0, SVG Export Plug-In . SVG Version: 6.00 Build 0)  -->
<svg version="1.1" id="Layer_1" xmlns="http://www.w3.org/2000/svg" xmlns:xlink="http://www.w3.org/1999/xlink" x="0px" y="0px"
	 viewBox="0 0 1000 1000" style="enable-background:new 0 0 1000 1000;" xml:space="preserve">
<g>
	<g transform="translate(0.000000,511.000000) scale(0.100000,-0.100000)">
		<path d="M3794.2,3013.1c-76.9-17.3-155.7-67.3-207.6-126.8l-38.4-46.1l-1668.2-5.8l-1670.1-3.8l-55.7-63.4
			c-59.6-67.3-69.2-126.8-32.7-205.6c50-109.6-13.5-105.7,1773.9-105.7h1643.2l76.9-76.9l76.9-76.9v-249.8v-249.8h-378.6
			c-459.3,0-609.2-28.8-899.4-173C1880,1364.2,1305.3,753,1011.3,139.9c-128.8-269.1-171-428.6-171-643.8
			c1.9-622.7,411.3-989.8,1237.7-1105.1c117.2-15.4,255.6-28.8,307.5-28.8c119.2,0,119.2,19.2,13.5-432.4l-82.6-345.9h-222.9
			c-209.5,0-226.8,1.9-272.9,46.1c-26.9,25-53.8,76.9-59.6,115.3c-19.2,113.4-44.2,153.8-113.4,186.4
			c-78.8,38.4-149.9,25-217.2-42.3c-44.2-44.2-48-61.5-40.4-167.2c13.4-211.4,138.4-388.2,340.2-482.4
			c88.4-40.4,92.3-40.4,1818.1-40.4H5278l107.6,50c201.8,94.2,328.6,278.7,332.5,482.4c1.9,96.1-5.8,117.2-51.9,163.4
			c-107.6,107.6-286.4,46.1-313.3-107.6c-28.8-180.7-84.6-213.3-361.3-213.3h-199.9l-51.9,226.8c-28.8,123-76.9,324.8-105.7,447.8
			l-51.9,224.9l155.7,59.6C5310.5-1247.7,5752.6-798,5960.1-223.3l40.4,115.3l1848.9,370.9C8866,466.6,9727,645.4,9759.7,658.8
			c34.6,15.4,80.7,55.7,101.9,90.3c36.5,61.5,38.4,94.2,38.4,901.4c0,693.8-3.8,843.7-26.9,861c-17.3,15.4-98,21.1-234.5,17.3
			l-209.5-5.8l-230.6-680.3c-190.3-561.2-238.3-688.1-278.7-714.9c-38.4-26.9-313.3-61.5-1422.2-178.7
			c-755.3-80.7-1397.2-149.9-1426-155.7c-50-7.7-59.6,1.9-113.4,111.5c-209.5,415.1-553.5,726.5-939.8,851.4
			c-82.6,25-201.8,36.5-528.5,44.2l-422.8,11.5l-3.8,240.2l-3.8,240.2l76.9,80.7l75,82.6l1674,3.8l1674,5.8l46.1,53.8
			c50,57.7,61.5,159.5,26.9,226.8c-51.9,96.1-11.5,94.2-1779.7,94.2H4207.4l-38.4,48C4094,2984.3,3917.2,3042,3794.2,3013.1z
			 M3054.2,814.5c3.8-492-1.9-697.7-17.3-714.9c-17.3-23.1-173-26.9-843.7-26.9c-924.4,0-897.5-3.8-828.3,128.8
			c111.5,215.3,430.5,611.2,645.8,801.4c345.9,305.6,753.4,518.9,970.6,505.5l67.3-3.8L3054.2,814.5z M4324.6-1670.5
			c11.5-40.4,50-211.4,88.4-380.5s73-322.9,78.8-340.2c9.6-32.7-44.2-34.6-932.1-34.6c-741.9,0-943.6,5.8-943.6,25
			c0,11.5,38.4,182.6,82.6,378.6l80.7,355.6l624.6,13.5c344,7.7,668.8,21.1,720.7,30.7C4295.8-1589.8,4303.5-1591.7,4324.6-1670.5z"
			/>
	</g>
</g>
</svg>
